<svg width="1440" height="1024" viewBox="0 0 1440 1024" fill="none" xmlns="http://www.w3.org/2000/svg">
<g clip-path="url(#clip0_53_4)">
<path d="M134.945 121.715C137.514 128.951 143.68 133.327 146.421 136.356C149.161 139.385 153.615 144.601 153.615 144.601C153.615 144.601 160 137.101 160.5 136.601C161 136.101 170 126.601 171.5 122.101C173.274 116.78 174.18 108.942 167.5 108.101C160.82 107.26 158.5 111.955 158.5 111.955L153.615 121.715L146.421 111.955C146.421 111.955 142.995 107.748 139.227 108.758C135.459 109.767 132.376 114.479 134.945 121.715Z" fill="#380097" stroke="#1A0243"/>
<path d="M568.945 181.715C571.514 188.951 577.68 193.327 580.421 196.356C583.161 199.385 587.615 204.601 587.615 204.601C587.615 204.601 594 197.101 594.5 196.601C595 196.101 604 186.601 605.5 182.101C607.274 176.78 608.18 168.942 601.5 168.101C594.82 167.26 592.5 171.955 592.5 171.955L587.615 181.715L580.421 171.955C580.421 171.955 576.995 167.748 573.227 168.758C569.459 169.767 566.376 174.479 568.945 181.715Z" fill="#380097" stroke="#1A0243"/>
<path d="M1034.95 121.715C1037.51 128.951 1043.68 133.327 1046.42 136.356C1049.16 139.385 1053.61 144.601 1053.61 144.601C1053.61 144.601 1060 137.101 1060.5 136.601C1061 136.101 1070 126.601 1071.5 122.101C1073.27 116.78 1074.18 108.942 1067.5 108.101C1060.82 107.26 1058.5 111.955 1058.5 111.955L1053.61 121.715L1046.42 111.955C1046.42 111.955 1043 107.748 1039.23 108.758C1035.46 109.767 1032.38 114.479 1034.95 121.715Z" fill="#380097" stroke="#1A0243"/>
<path d="M406.945 761.715C409.514 768.951 415.68 773.327 418.421 776.356C421.161 779.385 425.615 784.601 425.615 784.601C425.615 784.601 432 777.101 432.5 776.601C433 776.101 442 766.601 443.5 762.101C445.274 756.78 446.18 748.942 439.5 748.101C432.82 747.26 430.5 751.955 430.5 751.955L425.615 761.715L418.421 751.955C418.421 751.955 414.995 747.748 411.227 748.758C407.459 749.767 404.376 754.479 406.945 761.715Z" fill="#380097" stroke="#1A0243"/>
<path d="M529.945 925.715C532.514 932.951 538.68 937.327 541.421 940.356C544.161 943.385 548.615 948.601 548.615 948.601C548.615 948.601 555 941.101 555.5 940.601C556 940.101 565 930.601 566.5 926.101C568.274 920.78 569.18 912.942 562.5 912.101C555.82 911.26 553.5 915.955 553.5 915.955L548.615 925.715L541.421 915.955C541.421 915.955 537.995 911.748 534.227 912.758C530.459 913.767 527.376 918.479 529.945 925.715Z" fill="#380097" stroke="#1A0243"/>
<path d="M861.945 888.715C864.514 895.951 870.68 900.327 873.421 903.356C876.161 906.385 880.615 911.601 880.615 911.601C880.615 911.601 887 904.101 887.5 903.601C888 903.101 897 893.601 898.5 889.101C900.274 883.78 901.18 875.942 894.5 875.101C887.82 874.26 885.5 878.955 885.5 878.955L880.615 888.715L873.421 878.955C873.421 878.955 869.995 874.748 866.227 875.758C862.459 876.767 859.376 881.479 861.945 888.715Z" fill="#380097" stroke="#1A0243"/>
<path d="M1327.95 828.715C1330.51 835.951 1336.68 840.327 1339.42 843.356C1342.16 846.385 1346.61 851.601 1346.61 851.601C1346.61 851.601 1353 844.101 1353.5 843.601C1354 843.101 1363 833.601 1364.5 829.101C1366.27 823.78 1367.18 815.942 1360.5 815.101C1353.82 814.26 1351.5 818.955 1351.5 818.955L1346.61 828.715L1339.42 818.955C1339.42 818.955 1336 814.748 1332.23 815.758C1328.46 816.767 1325.38 821.479 1327.95 828.715Z" fill="#380097" stroke="#1A0243"/>
<path d="M99.9452 537.715C102.514 544.951 108.68 549.327 111.421 552.356C114.161 555.385 118.615 560.601 118.615 560.601C118.615 560.601 125 553.101 125.5 552.601C126 552.101 135 542.601 136.5 538.101C138.274 532.78 139.18 524.942 132.5 524.101C125.82 523.26 123.5 527.955 123.5 527.955L118.615 537.715L111.421 527.955C111.421 527.955 107.995 523.748 104.227 524.758C100.459 525.767 97.376 530.479 99.9452 537.715Z" fill="#380097" stroke="#1A0243"/>
<path d="M367.945 343.715C370.514 350.951 376.68 355.327 379.421 358.356C382.161 361.385 386.615 366.601 386.615 366.601C386.615 366.601 393 359.101 393.5 358.601C394 358.101 403 348.601 404.5 344.101C406.274 338.78 407.18 330.942 400.5 330.101C393.82 329.26 391.5 333.955 391.5 333.955L386.615 343.715L379.421 333.955C379.421 333.955 375.995 329.748 372.227 330.758C368.459 331.767 365.376 336.479 367.945 343.715Z" fill="#380097" stroke="#1A0243"/>
<path d="M881.945 324.715C884.514 331.951 890.68 336.327 893.421 339.356C896.161 342.385 900.615 347.601 900.615 347.601C900.615 347.601 907 340.101 907.5 339.601C908 339.101 917 329.601 918.5 325.101C920.274 319.78 921.18 311.942 914.5 311.101C907.82 310.26 905.5 314.955 905.5 314.955L900.615 324.715L893.421 314.955C893.421 314.955 889.995 310.748 886.227 311.758C882.459 312.767 879.376 317.479 881.945 324.715Z" fill="#380097" stroke="#1A0243"/>
<path d="M1327.95 121.715C1330.51 128.951 1336.68 133.327 1339.42 136.356C1342.16 139.385 1346.61 144.601 1346.61 144.601C1346.61 144.601 1353 137.101 1353.5 136.601C1354 136.101 1363 126.601 1364.5 122.101C1366.27 116.78 1367.18 108.942 1360.5 108.101C1353.82 107.26 1351.5 111.955 1351.5 111.955L1346.61 121.715L1339.42 111.955C1339.42 111.955 1336 107.748 1332.23 108.758C1328.46 109.767 1325.38 114.479 1327.95 121.715Z" fill="#380097" stroke="#1A0243"/>
<path d="M1346.95 362.715C1349.51 369.951 1355.68 374.327 1358.42 377.356C1361.16 380.385 1365.61 385.601 1365.61 385.601C1365.61 385.601 1372 378.101 1372.5 377.601C1373 377.101 1382 367.601 1383.5 363.101C1385.27 357.78 1386.18 349.942 1379.5 349.101C1372.82 348.26 1370.5 352.955 1370.5 352.955L1365.61 362.715L1358.42 352.955C1358.42 352.955 1355 348.748 1351.23 349.758C1347.46 350.767 1344.38 355.479 1346.95 362.715Z" fill="#380097" stroke="#1A0243"/>
<path d="M1099.95 574.715C1102.51 581.951 1108.68 586.327 1111.42 589.356C1114.16 592.385 1118.61 597.601 1118.61 597.601C1118.61 597.601 1125 590.101 1125.5 589.601C1126 589.101 1135 579.601 1136.5 575.101C1138.27 569.78 1139.18 561.942 1132.5 561.101C1125.82 560.26 1123.5 564.955 1123.5 564.955L1118.61 574.715L1111.42 564.955C1111.42 564.955 1108 560.748 1104.23 561.758C1100.46 562.767 1097.38 567.479 1099.95 574.715Z" fill="#380097" stroke="#1A0243"/>
<path d="M607.945 574.715C610.514 581.951 616.68 586.327 619.421 589.356C622.161 592.385 626.615 597.601 626.615 597.601C626.615 597.601 633 590.101 633.5 589.601C634 589.101 643 579.601 644.5 575.101C646.274 569.78 647.18 561.942 640.5 561.101C633.82 560.26 631.5 564.955 631.5 564.955L626.615 574.715L619.421 564.955C619.421 564.955 615.995 560.748 612.227 561.758C608.459 562.767 605.376 567.479 607.945 574.715Z" fill="#380097" stroke="#1A0243"/>
<path d="M95.9452 888.715C98.5144 895.951 104.68 900.327 107.421 903.356C110.161 906.385 114.615 911.601 114.615 911.601C114.615 911.601 121 904.101 121.5 903.601C122 903.101 131 893.601 132.5 889.101C134.274 883.78 135.18 875.942 128.5 875.101C121.82 874.26 119.5 878.955 119.5 878.955L114.615 888.715L107.421 878.955C107.421 878.955 103.995 874.748 100.227 875.758C96.459 876.767 93.376 881.479 95.9452 888.715Z" fill="#380097" stroke="#1A0243"/>
</g>
<defs>
<clipPath id="clip0_53_4">
<rect width="1440" height="1024" fill="white"/>
</clipPath>
</defs>
</svg>
